<mxfile host="app.diagrams.net" agent="Mozilla/5.0 (Windows NT 10.0; Win64; x64) AppleWebKit/537.36 (KHTML, like Gecko) Chrome/133.0.0.0 Safari/537.36" version="26.0.15">
  <diagram name="Page-1" id="xZEu-6E4SDZ-ESP8DW0V">
    <mxGraphModel dx="1290" dy="522" grid="1" gridSize="10" guides="1" tooltips="1" connect="1" arrows="1" fold="1" page="1" pageScale="1" pageWidth="1900" pageHeight="1300" math="0" shadow="0">
      <root>
        <mxCell id="0" />
        <mxCell id="1" parent="0" />
        <mxCell id="tU5ipXeWYmTYJDWc4llL-1" value="&lt;span style=&quot;box-sizing: border-box; outline: none; font-weight: bolder; color: rgb(0, 26, 30); font-family: Arial, Helvetica, sans-serif; font-size: 15px; text-align: left; text-wrap-mode: wrap; background-color: rgb(231, 243, 245);&quot; id=&quot;yui_3_17_2_1_1740089983597_1440&quot; data-end=&quot;265&quot; data-start=&quot;254&quot;&gt;Vehicle&lt;/span&gt;&lt;span style=&quot;color: rgb(0, 26, 30); font-family: Arial, Helvetica, sans-serif; font-size: 15px; font-weight: 400; text-align: left; text-wrap-mode: wrap; background-color: rgb(231, 243, 245);&quot;&gt;&amp;nbsp;&lt;/span&gt;" style="shape=table;startSize=30;container=1;collapsible=1;childLayout=tableLayout;fixedRows=1;rowLines=0;fontStyle=1;align=center;resizeLast=1;html=1;" vertex="1" parent="1">
          <mxGeometry x="690" width="180" height="210" as="geometry" />
        </mxCell>
        <mxCell id="tU5ipXeWYmTYJDWc4llL-2" value="" style="shape=tableRow;horizontal=0;startSize=0;swimlaneHead=0;swimlaneBody=0;fillColor=none;collapsible=0;dropTarget=0;points=[[0,0.5],[1,0.5]];portConstraint=eastwest;top=0;left=0;right=0;bottom=1;" vertex="1" parent="tU5ipXeWYmTYJDWc4llL-1">
          <mxGeometry y="30" width="180" height="30" as="geometry" />
        </mxCell>
        <mxCell id="tU5ipXeWYmTYJDWc4llL-3" value="PK" style="shape=partialRectangle;connectable=0;fillColor=none;top=0;left=0;bottom=0;right=0;fontStyle=1;overflow=hidden;whiteSpace=wrap;html=1;" vertex="1" parent="tU5ipXeWYmTYJDWc4llL-2">
          <mxGeometry width="30" height="30" as="geometry">
            <mxRectangle width="30" height="30" as="alternateBounds" />
          </mxGeometry>
        </mxCell>
        <mxCell id="tU5ipXeWYmTYJDWc4llL-4" value="&lt;span style=&quot;color: rgb(0, 26, 30); font-family: Arial, Helvetica, sans-serif; font-size: 15px; background-color: rgb(231, 243, 245);&quot;&gt;Vehicle_ID&lt;/span&gt;" style="shape=partialRectangle;connectable=0;fillColor=none;top=0;left=0;bottom=0;right=0;align=left;spacingLeft=6;fontStyle=5;overflow=hidden;whiteSpace=wrap;html=1;" vertex="1" parent="tU5ipXeWYmTYJDWc4llL-2">
          <mxGeometry x="30" width="150" height="30" as="geometry">
            <mxRectangle width="150" height="30" as="alternateBounds" />
          </mxGeometry>
        </mxCell>
        <mxCell id="tU5ipXeWYmTYJDWc4llL-5" value="" style="shape=tableRow;horizontal=0;startSize=0;swimlaneHead=0;swimlaneBody=0;fillColor=none;collapsible=0;dropTarget=0;points=[[0,0.5],[1,0.5]];portConstraint=eastwest;top=0;left=0;right=0;bottom=0;" vertex="1" parent="tU5ipXeWYmTYJDWc4llL-1">
          <mxGeometry y="60" width="180" height="30" as="geometry" />
        </mxCell>
        <mxCell id="tU5ipXeWYmTYJDWc4llL-6" value="" style="shape=partialRectangle;connectable=0;fillColor=none;top=0;left=0;bottom=0;right=0;editable=1;overflow=hidden;whiteSpace=wrap;html=1;" vertex="1" parent="tU5ipXeWYmTYJDWc4llL-5">
          <mxGeometry width="30" height="30" as="geometry">
            <mxRectangle width="30" height="30" as="alternateBounds" />
          </mxGeometry>
        </mxCell>
        <mxCell id="tU5ipXeWYmTYJDWc4llL-7" value="&lt;span style=&quot;color: rgb(0, 26, 30); font-family: Arial, Helvetica, sans-serif; font-size: 15px; background-color: rgb(231, 243, 245);&quot;&gt;License_Plate&lt;/span&gt;" style="shape=partialRectangle;connectable=0;fillColor=none;top=0;left=0;bottom=0;right=0;align=left;spacingLeft=6;overflow=hidden;whiteSpace=wrap;html=1;" vertex="1" parent="tU5ipXeWYmTYJDWc4llL-5">
          <mxGeometry x="30" width="150" height="30" as="geometry">
            <mxRectangle width="150" height="30" as="alternateBounds" />
          </mxGeometry>
        </mxCell>
        <mxCell id="tU5ipXeWYmTYJDWc4llL-8" value="" style="shape=tableRow;horizontal=0;startSize=0;swimlaneHead=0;swimlaneBody=0;fillColor=none;collapsible=0;dropTarget=0;points=[[0,0.5],[1,0.5]];portConstraint=eastwest;top=0;left=0;right=0;bottom=0;" vertex="1" parent="tU5ipXeWYmTYJDWc4llL-1">
          <mxGeometry y="90" width="180" height="30" as="geometry" />
        </mxCell>
        <mxCell id="tU5ipXeWYmTYJDWc4llL-9" value="" style="shape=partialRectangle;connectable=0;fillColor=none;top=0;left=0;bottom=0;right=0;editable=1;overflow=hidden;whiteSpace=wrap;html=1;" vertex="1" parent="tU5ipXeWYmTYJDWc4llL-8">
          <mxGeometry width="30" height="30" as="geometry">
            <mxRectangle width="30" height="30" as="alternateBounds" />
          </mxGeometry>
        </mxCell>
        <mxCell id="tU5ipXeWYmTYJDWc4llL-10" value="&lt;span style=&quot;color: rgb(0, 26, 30); font-family: Arial, Helvetica, sans-serif; font-size: 15px; background-color: rgb(231, 243, 245);&quot;&gt;Model&lt;/span&gt;" style="shape=partialRectangle;connectable=0;fillColor=none;top=0;left=0;bottom=0;right=0;align=left;spacingLeft=6;overflow=hidden;whiteSpace=wrap;html=1;" vertex="1" parent="tU5ipXeWYmTYJDWc4llL-8">
          <mxGeometry x="30" width="150" height="30" as="geometry">
            <mxRectangle width="150" height="30" as="alternateBounds" />
          </mxGeometry>
        </mxCell>
        <mxCell id="tU5ipXeWYmTYJDWc4llL-11" value="" style="shape=tableRow;horizontal=0;startSize=0;swimlaneHead=0;swimlaneBody=0;fillColor=none;collapsible=0;dropTarget=0;points=[[0,0.5],[1,0.5]];portConstraint=eastwest;top=0;left=0;right=0;bottom=0;" vertex="1" parent="tU5ipXeWYmTYJDWc4llL-1">
          <mxGeometry y="120" width="180" height="30" as="geometry" />
        </mxCell>
        <mxCell id="tU5ipXeWYmTYJDWc4llL-12" value="" style="shape=partialRectangle;connectable=0;fillColor=none;top=0;left=0;bottom=0;right=0;editable=1;overflow=hidden;whiteSpace=wrap;html=1;" vertex="1" parent="tU5ipXeWYmTYJDWc4llL-11">
          <mxGeometry width="30" height="30" as="geometry">
            <mxRectangle width="30" height="30" as="alternateBounds" />
          </mxGeometry>
        </mxCell>
        <mxCell id="tU5ipXeWYmTYJDWc4llL-13" value="&lt;span style=&quot;color: rgb(0, 26, 30); font-family: Arial, Helvetica, sans-serif; font-size: 15px; background-color: rgb(231, 243, 245);&quot;&gt;Year&lt;/span&gt;" style="shape=partialRectangle;connectable=0;fillColor=none;top=0;left=0;bottom=0;right=0;align=left;spacingLeft=6;overflow=hidden;whiteSpace=wrap;html=1;" vertex="1" parent="tU5ipXeWYmTYJDWc4llL-11">
          <mxGeometry x="30" width="150" height="30" as="geometry">
            <mxRectangle width="150" height="30" as="alternateBounds" />
          </mxGeometry>
        </mxCell>
        <mxCell id="tU5ipXeWYmTYJDWc4llL-74" value="" style="shape=tableRow;horizontal=0;startSize=0;swimlaneHead=0;swimlaneBody=0;fillColor=none;collapsible=0;dropTarget=0;points=[[0,0.5],[1,0.5]];portConstraint=eastwest;top=0;left=0;right=0;bottom=0;" vertex="1" parent="tU5ipXeWYmTYJDWc4llL-1">
          <mxGeometry y="150" width="180" height="30" as="geometry" />
        </mxCell>
        <mxCell id="tU5ipXeWYmTYJDWc4llL-75" value="" style="shape=partialRectangle;connectable=0;fillColor=none;top=0;left=0;bottom=0;right=0;editable=1;overflow=hidden;whiteSpace=wrap;html=1;" vertex="1" parent="tU5ipXeWYmTYJDWc4llL-74">
          <mxGeometry width="30" height="30" as="geometry">
            <mxRectangle width="30" height="30" as="alternateBounds" />
          </mxGeometry>
        </mxCell>
        <mxCell id="tU5ipXeWYmTYJDWc4llL-76" value="&lt;span style=&quot;color: rgb(0, 26, 30); font-family: Arial, Helvetica, sans-serif; font-size: 15px; background-color: rgb(231, 243, 245);&quot;&gt;Rental_Rate&lt;/span&gt;" style="shape=partialRectangle;connectable=0;fillColor=none;top=0;left=0;bottom=0;right=0;align=left;spacingLeft=6;overflow=hidden;whiteSpace=wrap;html=1;" vertex="1" parent="tU5ipXeWYmTYJDWc4llL-74">
          <mxGeometry x="30" width="150" height="30" as="geometry">
            <mxRectangle width="150" height="30" as="alternateBounds" />
          </mxGeometry>
        </mxCell>
        <mxCell id="tU5ipXeWYmTYJDWc4llL-77" value="" style="shape=tableRow;horizontal=0;startSize=0;swimlaneHead=0;swimlaneBody=0;fillColor=none;collapsible=0;dropTarget=0;points=[[0,0.5],[1,0.5]];portConstraint=eastwest;top=0;left=0;right=0;bottom=0;" vertex="1" parent="tU5ipXeWYmTYJDWc4llL-1">
          <mxGeometry y="180" width="180" height="30" as="geometry" />
        </mxCell>
        <mxCell id="tU5ipXeWYmTYJDWc4llL-78" value="" style="shape=partialRectangle;connectable=0;fillColor=none;top=0;left=0;bottom=0;right=0;editable=1;overflow=hidden;whiteSpace=wrap;html=1;" vertex="1" parent="tU5ipXeWYmTYJDWc4llL-77">
          <mxGeometry width="30" height="30" as="geometry">
            <mxRectangle width="30" height="30" as="alternateBounds" />
          </mxGeometry>
        </mxCell>
        <mxCell id="tU5ipXeWYmTYJDWc4llL-79" value="&lt;span style=&quot;color: rgb(0, 26, 30); font-family: Arial, Helvetica, sans-serif; font-size: 15px; background-color: rgb(231, 243, 245);&quot;&gt;Status&lt;/span&gt;" style="shape=partialRectangle;connectable=0;fillColor=none;top=0;left=0;bottom=0;right=0;align=left;spacingLeft=6;overflow=hidden;whiteSpace=wrap;html=1;" vertex="1" parent="tU5ipXeWYmTYJDWc4llL-77">
          <mxGeometry x="30" width="150" height="30" as="geometry">
            <mxRectangle width="150" height="30" as="alternateBounds" />
          </mxGeometry>
        </mxCell>
        <mxCell id="tU5ipXeWYmTYJDWc4llL-14" value="&lt;span style=&quot;box-sizing: border-box; outline: none; font-weight: bolder; color: rgb(0, 26, 30); font-family: Arial, Helvetica, sans-serif; font-size: 15px; text-align: left; text-wrap-mode: wrap; background-color: rgb(231, 243, 245);&quot; id=&quot;yui_3_17_2_1_1740089983597_1452&quot; data-end=&quot;411&quot; data-start=&quot;401&quot;&gt;Rental&lt;/span&gt;&lt;span style=&quot;color: rgb(0, 26, 30); font-family: Arial, Helvetica, sans-serif; font-size: 15px; font-weight: 400; text-align: left; text-wrap-mode: wrap; background-color: rgb(231, 243, 245);&quot;&gt;&amp;nbsp;&lt;/span&gt;" style="shape=table;startSize=30;container=1;collapsible=1;childLayout=tableLayout;fixedRows=1;rowLines=0;fontStyle=1;align=center;resizeLast=1;html=1;" vertex="1" parent="1">
          <mxGeometry x="370" width="180" height="210" as="geometry" />
        </mxCell>
        <mxCell id="tU5ipXeWYmTYJDWc4llL-15" value="" style="shape=tableRow;horizontal=0;startSize=0;swimlaneHead=0;swimlaneBody=0;fillColor=none;collapsible=0;dropTarget=0;points=[[0,0.5],[1,0.5]];portConstraint=eastwest;top=0;left=0;right=0;bottom=1;" vertex="1" parent="tU5ipXeWYmTYJDWc4llL-14">
          <mxGeometry y="30" width="180" height="30" as="geometry" />
        </mxCell>
        <mxCell id="tU5ipXeWYmTYJDWc4llL-16" value="PK" style="shape=partialRectangle;connectable=0;fillColor=none;top=0;left=0;bottom=0;right=0;fontStyle=1;overflow=hidden;whiteSpace=wrap;html=1;" vertex="1" parent="tU5ipXeWYmTYJDWc4llL-15">
          <mxGeometry width="30" height="30" as="geometry">
            <mxRectangle width="30" height="30" as="alternateBounds" />
          </mxGeometry>
        </mxCell>
        <mxCell id="tU5ipXeWYmTYJDWc4llL-17" value="&lt;span style=&quot;color: rgb(0, 26, 30); font-family: Arial, Helvetica, sans-serif; font-size: 15px; background-color: rgb(231, 243, 245);&quot;&gt;Rental_ID&lt;/span&gt;" style="shape=partialRectangle;connectable=0;fillColor=none;top=0;left=0;bottom=0;right=0;align=left;spacingLeft=6;fontStyle=5;overflow=hidden;whiteSpace=wrap;html=1;" vertex="1" parent="tU5ipXeWYmTYJDWc4llL-15">
          <mxGeometry x="30" width="150" height="30" as="geometry">
            <mxRectangle width="150" height="30" as="alternateBounds" />
          </mxGeometry>
        </mxCell>
        <mxCell id="tU5ipXeWYmTYJDWc4llL-18" value="" style="shape=tableRow;horizontal=0;startSize=0;swimlaneHead=0;swimlaneBody=0;fillColor=none;collapsible=0;dropTarget=0;points=[[0,0.5],[1,0.5]];portConstraint=eastwest;top=0;left=0;right=0;bottom=0;" vertex="1" parent="tU5ipXeWYmTYJDWc4llL-14">
          <mxGeometry y="60" width="180" height="30" as="geometry" />
        </mxCell>
        <mxCell id="tU5ipXeWYmTYJDWc4llL-19" value="&lt;b&gt;FK&lt;/b&gt;" style="shape=partialRectangle;connectable=0;fillColor=none;top=0;left=0;bottom=0;right=0;editable=1;overflow=hidden;whiteSpace=wrap;html=1;" vertex="1" parent="tU5ipXeWYmTYJDWc4llL-18">
          <mxGeometry width="30" height="30" as="geometry">
            <mxRectangle width="30" height="30" as="alternateBounds" />
          </mxGeometry>
        </mxCell>
        <mxCell id="tU5ipXeWYmTYJDWc4llL-20" value="&lt;span style=&quot;color: rgb(0, 26, 30); font-family: Arial, Helvetica, sans-serif; font-size: 15px; background-color: rgb(231, 243, 245);&quot;&gt;Customer_ID&lt;/span&gt;" style="shape=partialRectangle;connectable=0;fillColor=none;top=0;left=0;bottom=0;right=0;align=left;spacingLeft=6;overflow=hidden;whiteSpace=wrap;html=1;" vertex="1" parent="tU5ipXeWYmTYJDWc4llL-18">
          <mxGeometry x="30" width="150" height="30" as="geometry">
            <mxRectangle width="150" height="30" as="alternateBounds" />
          </mxGeometry>
        </mxCell>
        <mxCell id="tU5ipXeWYmTYJDWc4llL-21" value="" style="shape=tableRow;horizontal=0;startSize=0;swimlaneHead=0;swimlaneBody=0;fillColor=none;collapsible=0;dropTarget=0;points=[[0,0.5],[1,0.5]];portConstraint=eastwest;top=0;left=0;right=0;bottom=0;" vertex="1" parent="tU5ipXeWYmTYJDWc4llL-14">
          <mxGeometry y="90" width="180" height="30" as="geometry" />
        </mxCell>
        <mxCell id="tU5ipXeWYmTYJDWc4llL-22" value="&lt;b&gt;FK&lt;/b&gt;" style="shape=partialRectangle;connectable=0;fillColor=none;top=0;left=0;bottom=0;right=0;editable=1;overflow=hidden;whiteSpace=wrap;html=1;" vertex="1" parent="tU5ipXeWYmTYJDWc4llL-21">
          <mxGeometry width="30" height="30" as="geometry">
            <mxRectangle width="30" height="30" as="alternateBounds" />
          </mxGeometry>
        </mxCell>
        <mxCell id="tU5ipXeWYmTYJDWc4llL-23" value="&lt;span style=&quot;color: rgb(0, 26, 30); font-family: Arial, Helvetica, sans-serif; font-size: 15px; background-color: rgb(231, 243, 245);&quot;&gt;Vehicle_ID&lt;/span&gt;" style="shape=partialRectangle;connectable=0;fillColor=none;top=0;left=0;bottom=0;right=0;align=left;spacingLeft=6;overflow=hidden;whiteSpace=wrap;html=1;" vertex="1" parent="tU5ipXeWYmTYJDWc4llL-21">
          <mxGeometry x="30" width="150" height="30" as="geometry">
            <mxRectangle width="150" height="30" as="alternateBounds" />
          </mxGeometry>
        </mxCell>
        <mxCell id="tU5ipXeWYmTYJDWc4llL-24" value="" style="shape=tableRow;horizontal=0;startSize=0;swimlaneHead=0;swimlaneBody=0;fillColor=none;collapsible=0;dropTarget=0;points=[[0,0.5],[1,0.5]];portConstraint=eastwest;top=0;left=0;right=0;bottom=0;" vertex="1" parent="tU5ipXeWYmTYJDWc4llL-14">
          <mxGeometry y="120" width="180" height="30" as="geometry" />
        </mxCell>
        <mxCell id="tU5ipXeWYmTYJDWc4llL-25" value="" style="shape=partialRectangle;connectable=0;fillColor=none;top=0;left=0;bottom=0;right=0;editable=1;overflow=hidden;whiteSpace=wrap;html=1;" vertex="1" parent="tU5ipXeWYmTYJDWc4llL-24">
          <mxGeometry width="30" height="30" as="geometry">
            <mxRectangle width="30" height="30" as="alternateBounds" />
          </mxGeometry>
        </mxCell>
        <mxCell id="tU5ipXeWYmTYJDWc4llL-26" value="&lt;span style=&quot;color: rgb(0, 26, 30); font-family: Arial, Helvetica, sans-serif; font-size: 15px; background-color: rgb(231, 243, 245);&quot;&gt;Start_Date&lt;/span&gt;" style="shape=partialRectangle;connectable=0;fillColor=none;top=0;left=0;bottom=0;right=0;align=left;spacingLeft=6;overflow=hidden;whiteSpace=wrap;html=1;" vertex="1" parent="tU5ipXeWYmTYJDWc4llL-24">
          <mxGeometry x="30" width="150" height="30" as="geometry">
            <mxRectangle width="150" height="30" as="alternateBounds" />
          </mxGeometry>
        </mxCell>
        <mxCell id="tU5ipXeWYmTYJDWc4llL-83" value="" style="shape=tableRow;horizontal=0;startSize=0;swimlaneHead=0;swimlaneBody=0;fillColor=none;collapsible=0;dropTarget=0;points=[[0,0.5],[1,0.5]];portConstraint=eastwest;top=0;left=0;right=0;bottom=0;" vertex="1" parent="tU5ipXeWYmTYJDWc4llL-14">
          <mxGeometry y="150" width="180" height="30" as="geometry" />
        </mxCell>
        <mxCell id="tU5ipXeWYmTYJDWc4llL-84" value="" style="shape=partialRectangle;connectable=0;fillColor=none;top=0;left=0;bottom=0;right=0;editable=1;overflow=hidden;whiteSpace=wrap;html=1;" vertex="1" parent="tU5ipXeWYmTYJDWc4llL-83">
          <mxGeometry width="30" height="30" as="geometry">
            <mxRectangle width="30" height="30" as="alternateBounds" />
          </mxGeometry>
        </mxCell>
        <mxCell id="tU5ipXeWYmTYJDWc4llL-85" value="&lt;span style=&quot;color: rgb(0, 26, 30); font-family: Arial, Helvetica, sans-serif; font-size: 15px; background-color: rgb(231, 243, 245);&quot;&gt;End_Date&lt;/span&gt;" style="shape=partialRectangle;connectable=0;fillColor=none;top=0;left=0;bottom=0;right=0;align=left;spacingLeft=6;overflow=hidden;whiteSpace=wrap;html=1;" vertex="1" parent="tU5ipXeWYmTYJDWc4llL-83">
          <mxGeometry x="30" width="150" height="30" as="geometry">
            <mxRectangle width="150" height="30" as="alternateBounds" />
          </mxGeometry>
        </mxCell>
        <mxCell id="tU5ipXeWYmTYJDWc4llL-86" value="" style="shape=tableRow;horizontal=0;startSize=0;swimlaneHead=0;swimlaneBody=0;fillColor=none;collapsible=0;dropTarget=0;points=[[0,0.5],[1,0.5]];portConstraint=eastwest;top=0;left=0;right=0;bottom=0;" vertex="1" parent="tU5ipXeWYmTYJDWc4llL-14">
          <mxGeometry y="180" width="180" height="30" as="geometry" />
        </mxCell>
        <mxCell id="tU5ipXeWYmTYJDWc4llL-87" value="" style="shape=partialRectangle;connectable=0;fillColor=none;top=0;left=0;bottom=0;right=0;editable=1;overflow=hidden;whiteSpace=wrap;html=1;" vertex="1" parent="tU5ipXeWYmTYJDWc4llL-86">
          <mxGeometry width="30" height="30" as="geometry">
            <mxRectangle width="30" height="30" as="alternateBounds" />
          </mxGeometry>
        </mxCell>
        <mxCell id="tU5ipXeWYmTYJDWc4llL-88" value="&lt;span style=&quot;color: rgb(0, 26, 30); font-family: Arial, Helvetica, sans-serif; font-size: 15px; background-color: rgb(231, 243, 245);&quot;&gt;Total_Cost&lt;/span&gt;" style="shape=partialRectangle;connectable=0;fillColor=none;top=0;left=0;bottom=0;right=0;align=left;spacingLeft=6;overflow=hidden;whiteSpace=wrap;html=1;" vertex="1" parent="tU5ipXeWYmTYJDWc4llL-86">
          <mxGeometry x="30" width="150" height="30" as="geometry">
            <mxRectangle width="150" height="30" as="alternateBounds" />
          </mxGeometry>
        </mxCell>
        <mxCell id="tU5ipXeWYmTYJDWc4llL-27" value="&lt;span style=&quot;box-sizing: border-box; outline: none; font-weight: bolder; color: rgb(0, 26, 30); font-family: Arial, Helvetica, sans-serif; font-size: 15px; text-align: left; text-wrap-mode: wrap; background-color: rgb(231, 243, 245);&quot; data-end=&quot;345&quot; data-start=&quot;333&quot;&gt;Customer&lt;/span&gt;&lt;span style=&quot;color: rgb(0, 26, 30); font-family: Arial, Helvetica, sans-serif; font-size: 15px; font-weight: 400; text-align: left; text-wrap-mode: wrap; background-color: rgb(231, 243, 245);&quot;&gt;&amp;nbsp;&lt;/span&gt;" style="shape=table;startSize=30;container=1;collapsible=1;childLayout=tableLayout;fixedRows=1;rowLines=0;fontStyle=1;align=center;resizeLast=1;html=1;" vertex="1" parent="1">
          <mxGeometry x="20" width="180" height="180" as="geometry" />
        </mxCell>
        <mxCell id="tU5ipXeWYmTYJDWc4llL-28" value="" style="shape=tableRow;horizontal=0;startSize=0;swimlaneHead=0;swimlaneBody=0;fillColor=none;collapsible=0;dropTarget=0;points=[[0,0.5],[1,0.5]];portConstraint=eastwest;top=0;left=0;right=0;bottom=1;" vertex="1" parent="tU5ipXeWYmTYJDWc4llL-27">
          <mxGeometry y="30" width="180" height="30" as="geometry" />
        </mxCell>
        <mxCell id="tU5ipXeWYmTYJDWc4llL-29" value="PK" style="shape=partialRectangle;connectable=0;fillColor=none;top=0;left=0;bottom=0;right=0;fontStyle=1;overflow=hidden;whiteSpace=wrap;html=1;" vertex="1" parent="tU5ipXeWYmTYJDWc4llL-28">
          <mxGeometry width="30" height="30" as="geometry">
            <mxRectangle width="30" height="30" as="alternateBounds" />
          </mxGeometry>
        </mxCell>
        <mxCell id="tU5ipXeWYmTYJDWc4llL-30" value="&lt;span style=&quot;color: rgb(0, 26, 30); font-family: Arial, Helvetica, sans-serif; font-size: 15px; background-color: rgb(231, 243, 245);&quot;&gt;Customer_ID&lt;/span&gt;" style="shape=partialRectangle;connectable=0;fillColor=none;top=0;left=0;bottom=0;right=0;align=left;spacingLeft=6;fontStyle=5;overflow=hidden;whiteSpace=wrap;html=1;" vertex="1" parent="tU5ipXeWYmTYJDWc4llL-28">
          <mxGeometry x="30" width="150" height="30" as="geometry">
            <mxRectangle width="150" height="30" as="alternateBounds" />
          </mxGeometry>
        </mxCell>
        <mxCell id="tU5ipXeWYmTYJDWc4llL-31" value="" style="shape=tableRow;horizontal=0;startSize=0;swimlaneHead=0;swimlaneBody=0;fillColor=none;collapsible=0;dropTarget=0;points=[[0,0.5],[1,0.5]];portConstraint=eastwest;top=0;left=0;right=0;bottom=0;" vertex="1" parent="tU5ipXeWYmTYJDWc4llL-27">
          <mxGeometry y="60" width="180" height="30" as="geometry" />
        </mxCell>
        <mxCell id="tU5ipXeWYmTYJDWc4llL-32" value="" style="shape=partialRectangle;connectable=0;fillColor=none;top=0;left=0;bottom=0;right=0;editable=1;overflow=hidden;whiteSpace=wrap;html=1;" vertex="1" parent="tU5ipXeWYmTYJDWc4llL-31">
          <mxGeometry width="30" height="30" as="geometry">
            <mxRectangle width="30" height="30" as="alternateBounds" />
          </mxGeometry>
        </mxCell>
        <mxCell id="tU5ipXeWYmTYJDWc4llL-33" value="&lt;span style=&quot;color: rgb(0, 26, 30); font-family: Arial, Helvetica, sans-serif; font-size: 15px; background-color: rgb(231, 243, 245);&quot;&gt;Name&lt;/span&gt;" style="shape=partialRectangle;connectable=0;fillColor=none;top=0;left=0;bottom=0;right=0;align=left;spacingLeft=6;overflow=hidden;whiteSpace=wrap;html=1;" vertex="1" parent="tU5ipXeWYmTYJDWc4llL-31">
          <mxGeometry x="30" width="150" height="30" as="geometry">
            <mxRectangle width="150" height="30" as="alternateBounds" />
          </mxGeometry>
        </mxCell>
        <mxCell id="tU5ipXeWYmTYJDWc4llL-34" value="" style="shape=tableRow;horizontal=0;startSize=0;swimlaneHead=0;swimlaneBody=0;fillColor=none;collapsible=0;dropTarget=0;points=[[0,0.5],[1,0.5]];portConstraint=eastwest;top=0;left=0;right=0;bottom=0;" vertex="1" parent="tU5ipXeWYmTYJDWc4llL-27">
          <mxGeometry y="90" width="180" height="30" as="geometry" />
        </mxCell>
        <mxCell id="tU5ipXeWYmTYJDWc4llL-35" value="" style="shape=partialRectangle;connectable=0;fillColor=none;top=0;left=0;bottom=0;right=0;editable=1;overflow=hidden;whiteSpace=wrap;html=1;" vertex="1" parent="tU5ipXeWYmTYJDWc4llL-34">
          <mxGeometry width="30" height="30" as="geometry">
            <mxRectangle width="30" height="30" as="alternateBounds" />
          </mxGeometry>
        </mxCell>
        <mxCell id="tU5ipXeWYmTYJDWc4llL-36" value="&lt;span style=&quot;color: rgb(0, 26, 30); font-family: Arial, Helvetica, sans-serif; font-size: 15px; background-color: rgb(231, 243, 245);&quot;&gt;Email&lt;/span&gt;" style="shape=partialRectangle;connectable=0;fillColor=none;top=0;left=0;bottom=0;right=0;align=left;spacingLeft=6;overflow=hidden;whiteSpace=wrap;html=1;" vertex="1" parent="tU5ipXeWYmTYJDWc4llL-34">
          <mxGeometry x="30" width="150" height="30" as="geometry">
            <mxRectangle width="150" height="30" as="alternateBounds" />
          </mxGeometry>
        </mxCell>
        <mxCell id="tU5ipXeWYmTYJDWc4llL-37" value="" style="shape=tableRow;horizontal=0;startSize=0;swimlaneHead=0;swimlaneBody=0;fillColor=none;collapsible=0;dropTarget=0;points=[[0,0.5],[1,0.5]];portConstraint=eastwest;top=0;left=0;right=0;bottom=0;" vertex="1" parent="tU5ipXeWYmTYJDWc4llL-27">
          <mxGeometry y="120" width="180" height="30" as="geometry" />
        </mxCell>
        <mxCell id="tU5ipXeWYmTYJDWc4llL-38" value="" style="shape=partialRectangle;connectable=0;fillColor=none;top=0;left=0;bottom=0;right=0;editable=1;overflow=hidden;whiteSpace=wrap;html=1;" vertex="1" parent="tU5ipXeWYmTYJDWc4llL-37">
          <mxGeometry width="30" height="30" as="geometry">
            <mxRectangle width="30" height="30" as="alternateBounds" />
          </mxGeometry>
        </mxCell>
        <mxCell id="tU5ipXeWYmTYJDWc4llL-39" value="&lt;span style=&quot;color: rgb(0, 26, 30); font-family: Arial, Helvetica, sans-serif; font-size: 15px; background-color: rgb(231, 243, 245);&quot;&gt;Phone&lt;/span&gt;" style="shape=partialRectangle;connectable=0;fillColor=none;top=0;left=0;bottom=0;right=0;align=left;spacingLeft=6;overflow=hidden;whiteSpace=wrap;html=1;" vertex="1" parent="tU5ipXeWYmTYJDWc4llL-37">
          <mxGeometry x="30" width="150" height="30" as="geometry">
            <mxRectangle width="150" height="30" as="alternateBounds" />
          </mxGeometry>
        </mxCell>
        <mxCell id="tU5ipXeWYmTYJDWc4llL-80" value="" style="shape=tableRow;horizontal=0;startSize=0;swimlaneHead=0;swimlaneBody=0;fillColor=none;collapsible=0;dropTarget=0;points=[[0,0.5],[1,0.5]];portConstraint=eastwest;top=0;left=0;right=0;bottom=0;" vertex="1" parent="tU5ipXeWYmTYJDWc4llL-27">
          <mxGeometry y="150" width="180" height="30" as="geometry" />
        </mxCell>
        <mxCell id="tU5ipXeWYmTYJDWc4llL-81" value="" style="shape=partialRectangle;connectable=0;fillColor=none;top=0;left=0;bottom=0;right=0;editable=1;overflow=hidden;whiteSpace=wrap;html=1;" vertex="1" parent="tU5ipXeWYmTYJDWc4llL-80">
          <mxGeometry width="30" height="30" as="geometry">
            <mxRectangle width="30" height="30" as="alternateBounds" />
          </mxGeometry>
        </mxCell>
        <mxCell id="tU5ipXeWYmTYJDWc4llL-82" value="&lt;span style=&quot;color: rgb(0, 26, 30); font-family: Arial, Helvetica, sans-serif; font-size: 15px; background-color: rgb(231, 243, 245);&quot;&gt;Driver_License&lt;/span&gt;" style="shape=partialRectangle;connectable=0;fillColor=none;top=0;left=0;bottom=0;right=0;align=left;spacingLeft=6;overflow=hidden;whiteSpace=wrap;html=1;" vertex="1" parent="tU5ipXeWYmTYJDWc4llL-80">
          <mxGeometry x="30" width="150" height="30" as="geometry">
            <mxRectangle width="150" height="30" as="alternateBounds" />
          </mxGeometry>
        </mxCell>
        <mxCell id="tU5ipXeWYmTYJDWc4llL-48" value="&lt;span style=&quot;box-sizing: border-box; outline: none; font-weight: bolder; color: rgb(0, 26, 30); font-family: Arial, Helvetica, sans-serif; font-size: 15px; text-align: left; text-wrap-mode: wrap; background-color: rgb(231, 243, 245);&quot; id=&quot;yui_3_17_2_1_1740089983597_1458&quot; data-end=&quot;569&quot; data-start=&quot;559&quot;&gt;Branch&lt;/span&gt;&lt;span style=&quot;color: rgb(0, 26, 30); font-family: Arial, Helvetica, sans-serif; font-size: 15px; font-weight: 400; text-align: left; text-wrap-mode: wrap; background-color: rgb(231, 243, 245);&quot;&gt;&amp;nbsp;&lt;/span&gt;" style="shape=table;startSize=30;container=1;collapsible=1;childLayout=tableLayout;fixedRows=1;rowLines=0;fontStyle=1;align=center;resizeLast=1;html=1;" vertex="1" parent="1">
          <mxGeometry x="575" y="280" width="180" height="150" as="geometry" />
        </mxCell>
        <mxCell id="tU5ipXeWYmTYJDWc4llL-49" value="" style="shape=tableRow;horizontal=0;startSize=0;swimlaneHead=0;swimlaneBody=0;fillColor=none;collapsible=0;dropTarget=0;points=[[0,0.5],[1,0.5]];portConstraint=eastwest;top=0;left=0;right=0;bottom=1;" vertex="1" parent="tU5ipXeWYmTYJDWc4llL-48">
          <mxGeometry y="30" width="180" height="30" as="geometry" />
        </mxCell>
        <mxCell id="tU5ipXeWYmTYJDWc4llL-50" value="PK" style="shape=partialRectangle;connectable=0;fillColor=none;top=0;left=0;bottom=0;right=0;fontStyle=1;overflow=hidden;whiteSpace=wrap;html=1;" vertex="1" parent="tU5ipXeWYmTYJDWc4llL-49">
          <mxGeometry width="30" height="30" as="geometry">
            <mxRectangle width="30" height="30" as="alternateBounds" />
          </mxGeometry>
        </mxCell>
        <mxCell id="tU5ipXeWYmTYJDWc4llL-51" value="&lt;span style=&quot;color: rgb(0, 26, 30); font-family: Arial, Helvetica, sans-serif; font-size: 15px; background-color: rgb(231, 243, 245);&quot;&gt;Branch_ID&lt;/span&gt;" style="shape=partialRectangle;connectable=0;fillColor=none;top=0;left=0;bottom=0;right=0;align=left;spacingLeft=6;fontStyle=5;overflow=hidden;whiteSpace=wrap;html=1;" vertex="1" parent="tU5ipXeWYmTYJDWc4llL-49">
          <mxGeometry x="30" width="150" height="30" as="geometry">
            <mxRectangle width="150" height="30" as="alternateBounds" />
          </mxGeometry>
        </mxCell>
        <mxCell id="tU5ipXeWYmTYJDWc4llL-52" value="" style="shape=tableRow;horizontal=0;startSize=0;swimlaneHead=0;swimlaneBody=0;fillColor=none;collapsible=0;dropTarget=0;points=[[0,0.5],[1,0.5]];portConstraint=eastwest;top=0;left=0;right=0;bottom=0;" vertex="1" parent="tU5ipXeWYmTYJDWc4llL-48">
          <mxGeometry y="60" width="180" height="30" as="geometry" />
        </mxCell>
        <mxCell id="tU5ipXeWYmTYJDWc4llL-53" value="" style="shape=partialRectangle;connectable=0;fillColor=none;top=0;left=0;bottom=0;right=0;editable=1;overflow=hidden;whiteSpace=wrap;html=1;" vertex="1" parent="tU5ipXeWYmTYJDWc4llL-52">
          <mxGeometry width="30" height="30" as="geometry">
            <mxRectangle width="30" height="30" as="alternateBounds" />
          </mxGeometry>
        </mxCell>
        <mxCell id="tU5ipXeWYmTYJDWc4llL-54" value="&lt;span style=&quot;color: rgb(0, 26, 30); font-family: Arial, Helvetica, sans-serif; font-size: 15px; background-color: rgb(231, 243, 245);&quot;&gt;Name&lt;/span&gt;" style="shape=partialRectangle;connectable=0;fillColor=none;top=0;left=0;bottom=0;right=0;align=left;spacingLeft=6;overflow=hidden;whiteSpace=wrap;html=1;" vertex="1" parent="tU5ipXeWYmTYJDWc4llL-52">
          <mxGeometry x="30" width="150" height="30" as="geometry">
            <mxRectangle width="150" height="30" as="alternateBounds" />
          </mxGeometry>
        </mxCell>
        <mxCell id="tU5ipXeWYmTYJDWc4llL-55" value="" style="shape=tableRow;horizontal=0;startSize=0;swimlaneHead=0;swimlaneBody=0;fillColor=none;collapsible=0;dropTarget=0;points=[[0,0.5],[1,0.5]];portConstraint=eastwest;top=0;left=0;right=0;bottom=0;" vertex="1" parent="tU5ipXeWYmTYJDWc4llL-48">
          <mxGeometry y="90" width="180" height="30" as="geometry" />
        </mxCell>
        <mxCell id="tU5ipXeWYmTYJDWc4llL-56" value="" style="shape=partialRectangle;connectable=0;fillColor=none;top=0;left=0;bottom=0;right=0;editable=1;overflow=hidden;whiteSpace=wrap;html=1;" vertex="1" parent="tU5ipXeWYmTYJDWc4llL-55">
          <mxGeometry width="30" height="30" as="geometry">
            <mxRectangle width="30" height="30" as="alternateBounds" />
          </mxGeometry>
        </mxCell>
        <mxCell id="tU5ipXeWYmTYJDWc4llL-57" value="&lt;span style=&quot;color: rgb(0, 26, 30); font-family: Arial, Helvetica, sans-serif; font-size: 15px; background-color: rgb(231, 243, 245);&quot;&gt;Location&lt;/span&gt;" style="shape=partialRectangle;connectable=0;fillColor=none;top=0;left=0;bottom=0;right=0;align=left;spacingLeft=6;overflow=hidden;whiteSpace=wrap;html=1;" vertex="1" parent="tU5ipXeWYmTYJDWc4llL-55">
          <mxGeometry x="30" width="150" height="30" as="geometry">
            <mxRectangle width="150" height="30" as="alternateBounds" />
          </mxGeometry>
        </mxCell>
        <mxCell id="tU5ipXeWYmTYJDWc4llL-58" value="" style="shape=tableRow;horizontal=0;startSize=0;swimlaneHead=0;swimlaneBody=0;fillColor=none;collapsible=0;dropTarget=0;points=[[0,0.5],[1,0.5]];portConstraint=eastwest;top=0;left=0;right=0;bottom=0;" vertex="1" parent="tU5ipXeWYmTYJDWc4llL-48">
          <mxGeometry y="120" width="180" height="30" as="geometry" />
        </mxCell>
        <mxCell id="tU5ipXeWYmTYJDWc4llL-59" value="" style="shape=partialRectangle;connectable=0;fillColor=none;top=0;left=0;bottom=0;right=0;editable=1;overflow=hidden;whiteSpace=wrap;html=1;" vertex="1" parent="tU5ipXeWYmTYJDWc4llL-58">
          <mxGeometry width="30" height="30" as="geometry">
            <mxRectangle width="30" height="30" as="alternateBounds" />
          </mxGeometry>
        </mxCell>
        <mxCell id="tU5ipXeWYmTYJDWc4llL-60" value="&lt;span style=&quot;color: rgb(0, 26, 30); font-family: Arial, Helvetica, sans-serif; font-size: 15px; background-color: rgb(231, 243, 245);&quot;&gt;Contact_Number&lt;/span&gt;" style="shape=partialRectangle;connectable=0;fillColor=none;top=0;left=0;bottom=0;right=0;align=left;spacingLeft=6;overflow=hidden;whiteSpace=wrap;html=1;" vertex="1" parent="tU5ipXeWYmTYJDWc4llL-58">
          <mxGeometry x="30" width="150" height="30" as="geometry">
            <mxRectangle width="150" height="30" as="alternateBounds" />
          </mxGeometry>
        </mxCell>
        <mxCell id="tU5ipXeWYmTYJDWc4llL-61" value="&lt;span style=&quot;box-sizing: border-box; outline: none; font-weight: bolder; color: rgb(0, 26, 30); font-family: Arial, Helvetica, sans-serif; font-size: 15px; text-align: left; text-wrap-mode: wrap; background-color: rgb(231, 243, 245);&quot; id=&quot;yui_3_17_2_1_1740089983597_1454&quot; data-end=&quot;500&quot; data-start=&quot;488&quot;&gt;Employee&lt;/span&gt;&lt;span style=&quot;color: rgb(0, 26, 30); font-family: Arial, Helvetica, sans-serif; font-size: 15px; font-weight: 400; text-align: left; text-wrap-mode: wrap; background-color: rgb(231, 243, 245);&quot;&gt;&amp;nbsp;&lt;/span&gt;" style="shape=table;startSize=30;container=1;collapsible=1;childLayout=tableLayout;fixedRows=1;rowLines=0;fontStyle=1;align=center;resizeLast=1;html=1;" vertex="1" parent="1">
          <mxGeometry x="130" y="280" width="180" height="180" as="geometry" />
        </mxCell>
        <mxCell id="tU5ipXeWYmTYJDWc4llL-62" value="" style="shape=tableRow;horizontal=0;startSize=0;swimlaneHead=0;swimlaneBody=0;fillColor=none;collapsible=0;dropTarget=0;points=[[0,0.5],[1,0.5]];portConstraint=eastwest;top=0;left=0;right=0;bottom=1;" vertex="1" parent="tU5ipXeWYmTYJDWc4llL-61">
          <mxGeometry y="30" width="180" height="30" as="geometry" />
        </mxCell>
        <mxCell id="tU5ipXeWYmTYJDWc4llL-63" value="PK" style="shape=partialRectangle;connectable=0;fillColor=none;top=0;left=0;bottom=0;right=0;fontStyle=1;overflow=hidden;whiteSpace=wrap;html=1;" vertex="1" parent="tU5ipXeWYmTYJDWc4llL-62">
          <mxGeometry width="30" height="30" as="geometry">
            <mxRectangle width="30" height="30" as="alternateBounds" />
          </mxGeometry>
        </mxCell>
        <mxCell id="tU5ipXeWYmTYJDWc4llL-64" value="&lt;span style=&quot;color: rgb(0, 26, 30); font-family: Arial, Helvetica, sans-serif; font-size: 15px; background-color: rgb(231, 243, 245);&quot;&gt;Employee_ID&lt;/span&gt;" style="shape=partialRectangle;connectable=0;fillColor=none;top=0;left=0;bottom=0;right=0;align=left;spacingLeft=6;fontStyle=5;overflow=hidden;whiteSpace=wrap;html=1;" vertex="1" parent="tU5ipXeWYmTYJDWc4llL-62">
          <mxGeometry x="30" width="150" height="30" as="geometry">
            <mxRectangle width="150" height="30" as="alternateBounds" />
          </mxGeometry>
        </mxCell>
        <mxCell id="tU5ipXeWYmTYJDWc4llL-65" value="" style="shape=tableRow;horizontal=0;startSize=0;swimlaneHead=0;swimlaneBody=0;fillColor=none;collapsible=0;dropTarget=0;points=[[0,0.5],[1,0.5]];portConstraint=eastwest;top=0;left=0;right=0;bottom=0;" vertex="1" parent="tU5ipXeWYmTYJDWc4llL-61">
          <mxGeometry y="60" width="180" height="30" as="geometry" />
        </mxCell>
        <mxCell id="tU5ipXeWYmTYJDWc4llL-66" value="" style="shape=partialRectangle;connectable=0;fillColor=none;top=0;left=0;bottom=0;right=0;editable=1;overflow=hidden;whiteSpace=wrap;html=1;" vertex="1" parent="tU5ipXeWYmTYJDWc4llL-65">
          <mxGeometry width="30" height="30" as="geometry">
            <mxRectangle width="30" height="30" as="alternateBounds" />
          </mxGeometry>
        </mxCell>
        <mxCell id="tU5ipXeWYmTYJDWc4llL-67" value="&lt;span style=&quot;color: rgb(0, 26, 30); font-family: Arial, Helvetica, sans-serif; font-size: 15px; background-color: rgb(231, 243, 245);&quot;&gt;Name&lt;/span&gt;" style="shape=partialRectangle;connectable=0;fillColor=none;top=0;left=0;bottom=0;right=0;align=left;spacingLeft=6;overflow=hidden;whiteSpace=wrap;html=1;" vertex="1" parent="tU5ipXeWYmTYJDWc4llL-65">
          <mxGeometry x="30" width="150" height="30" as="geometry">
            <mxRectangle width="150" height="30" as="alternateBounds" />
          </mxGeometry>
        </mxCell>
        <mxCell id="tU5ipXeWYmTYJDWc4llL-68" value="" style="shape=tableRow;horizontal=0;startSize=0;swimlaneHead=0;swimlaneBody=0;fillColor=none;collapsible=0;dropTarget=0;points=[[0,0.5],[1,0.5]];portConstraint=eastwest;top=0;left=0;right=0;bottom=0;" vertex="1" parent="tU5ipXeWYmTYJDWc4llL-61">
          <mxGeometry y="90" width="180" height="30" as="geometry" />
        </mxCell>
        <mxCell id="tU5ipXeWYmTYJDWc4llL-69" value="" style="shape=partialRectangle;connectable=0;fillColor=none;top=0;left=0;bottom=0;right=0;editable=1;overflow=hidden;whiteSpace=wrap;html=1;" vertex="1" parent="tU5ipXeWYmTYJDWc4llL-68">
          <mxGeometry width="30" height="30" as="geometry">
            <mxRectangle width="30" height="30" as="alternateBounds" />
          </mxGeometry>
        </mxCell>
        <mxCell id="tU5ipXeWYmTYJDWc4llL-70" value="&lt;span style=&quot;color: rgb(0, 26, 30); font-family: Arial, Helvetica, sans-serif; font-size: 15px; background-color: rgb(231, 243, 245);&quot;&gt;Role&lt;/span&gt;" style="shape=partialRectangle;connectable=0;fillColor=none;top=0;left=0;bottom=0;right=0;align=left;spacingLeft=6;overflow=hidden;whiteSpace=wrap;html=1;" vertex="1" parent="tU5ipXeWYmTYJDWc4llL-68">
          <mxGeometry x="30" width="150" height="30" as="geometry">
            <mxRectangle width="150" height="30" as="alternateBounds" />
          </mxGeometry>
        </mxCell>
        <mxCell id="tU5ipXeWYmTYJDWc4llL-71" value="" style="shape=tableRow;horizontal=0;startSize=0;swimlaneHead=0;swimlaneBody=0;fillColor=none;collapsible=0;dropTarget=0;points=[[0,0.5],[1,0.5]];portConstraint=eastwest;top=0;left=0;right=0;bottom=0;" vertex="1" parent="tU5ipXeWYmTYJDWc4llL-61">
          <mxGeometry y="120" width="180" height="30" as="geometry" />
        </mxCell>
        <mxCell id="tU5ipXeWYmTYJDWc4llL-72" value="&lt;b&gt;FK&lt;/b&gt;" style="shape=partialRectangle;connectable=0;fillColor=none;top=0;left=0;bottom=0;right=0;editable=1;overflow=hidden;whiteSpace=wrap;html=1;" vertex="1" parent="tU5ipXeWYmTYJDWc4llL-71">
          <mxGeometry width="30" height="30" as="geometry">
            <mxRectangle width="30" height="30" as="alternateBounds" />
          </mxGeometry>
        </mxCell>
        <mxCell id="tU5ipXeWYmTYJDWc4llL-73" value="&lt;span style=&quot;color: rgb(0, 26, 30); font-family: Arial, Helvetica, sans-serif; font-size: 15px; background-color: rgb(231, 243, 245);&quot;&gt;Branch_ID&lt;/span&gt;" style="shape=partialRectangle;connectable=0;fillColor=none;top=0;left=0;bottom=0;right=0;align=left;spacingLeft=6;overflow=hidden;whiteSpace=wrap;html=1;" vertex="1" parent="tU5ipXeWYmTYJDWc4llL-71">
          <mxGeometry x="30" width="150" height="30" as="geometry">
            <mxRectangle width="150" height="30" as="alternateBounds" />
          </mxGeometry>
        </mxCell>
        <mxCell id="tU5ipXeWYmTYJDWc4llL-89" value="" style="shape=tableRow;horizontal=0;startSize=0;swimlaneHead=0;swimlaneBody=0;fillColor=none;collapsible=0;dropTarget=0;points=[[0,0.5],[1,0.5]];portConstraint=eastwest;top=0;left=0;right=0;bottom=0;" vertex="1" parent="tU5ipXeWYmTYJDWc4llL-61">
          <mxGeometry y="150" width="180" height="30" as="geometry" />
        </mxCell>
        <mxCell id="tU5ipXeWYmTYJDWc4llL-90" value="" style="shape=partialRectangle;connectable=0;fillColor=none;top=0;left=0;bottom=0;right=0;editable=1;overflow=hidden;whiteSpace=wrap;html=1;" vertex="1" parent="tU5ipXeWYmTYJDWc4llL-89">
          <mxGeometry width="30" height="30" as="geometry">
            <mxRectangle width="30" height="30" as="alternateBounds" />
          </mxGeometry>
        </mxCell>
        <mxCell id="tU5ipXeWYmTYJDWc4llL-91" value="&lt;span style=&quot;color: rgb(0, 26, 30); font-family: Arial, Helvetica, sans-serif; font-size: 15px; background-color: rgb(231, 243, 245);&quot;&gt;Contact_Number&lt;/span&gt;" style="shape=partialRectangle;connectable=0;fillColor=none;top=0;left=0;bottom=0;right=0;align=left;spacingLeft=6;overflow=hidden;whiteSpace=wrap;html=1;" vertex="1" parent="tU5ipXeWYmTYJDWc4llL-89">
          <mxGeometry x="30" width="150" height="30" as="geometry">
            <mxRectangle width="150" height="30" as="alternateBounds" />
          </mxGeometry>
        </mxCell>
        <mxCell id="tU5ipXeWYmTYJDWc4llL-99" value="" style="edgeStyle=entityRelationEdgeStyle;fontSize=12;html=1;endArrow=ERzeroToMany;startArrow=ERzeroToOne;rounded=0;exitX=1;exitY=0.5;exitDx=0;exitDy=0;" edge="1" parent="1" source="tU5ipXeWYmTYJDWc4llL-28" target="tU5ipXeWYmTYJDWc4llL-18">
          <mxGeometry width="100" height="100" relative="1" as="geometry">
            <mxPoint x="270" y="200" as="sourcePoint" />
            <mxPoint x="370" y="100" as="targetPoint" />
          </mxGeometry>
        </mxCell>
        <mxCell id="tU5ipXeWYmTYJDWc4llL-102" value="" style="edgeStyle=entityRelationEdgeStyle;fontSize=12;html=1;endArrow=ERzeroToMany;startArrow=ERzeroToOne;rounded=0;exitX=1.009;exitY=0.293;exitDx=0;exitDy=0;entryX=0;entryY=0.5;entryDx=0;entryDy=0;exitPerimeter=0;" edge="1" parent="1" source="tU5ipXeWYmTYJDWc4llL-21" target="tU5ipXeWYmTYJDWc4llL-2">
          <mxGeometry width="100" height="100" relative="1" as="geometry">
            <mxPoint x="590" y="70" as="sourcePoint" />
            <mxPoint x="760" y="20" as="targetPoint" />
          </mxGeometry>
        </mxCell>
        <mxCell id="tU5ipXeWYmTYJDWc4llL-103" value="" style="edgeStyle=entityRelationEdgeStyle;fontSize=12;html=1;endArrow=ERmandOne;startArrow=ERmandOne;rounded=0;entryX=-0.007;entryY=0.76;entryDx=0;entryDy=0;entryPerimeter=0;exitX=1.013;exitY=0.733;exitDx=0;exitDy=0;exitPerimeter=0;" edge="1" parent="1" source="tU5ipXeWYmTYJDWc4llL-71" target="tU5ipXeWYmTYJDWc4llL-49">
          <mxGeometry width="100" height="100" relative="1" as="geometry">
            <mxPoint x="335" y="490" as="sourcePoint" />
            <mxPoint x="435" y="390" as="targetPoint" />
          </mxGeometry>
        </mxCell>
      </root>
    </mxGraphModel>
  </diagram>
</mxfile>
